<svg version="1.2" xmlns="http://www.w3.org/2000/svg" viewBox="0 0 1080 1080" width="1080" height="1080">
	<title>New Project</title>
	<defs>
		<clipPath clipPathUnits="userSpaceOnUse" id="cp1">
			<path d="m540 1080c-298.62 0-540-241.38-540-540 0-298.62 241.38-540 540-540 298.62 0 540 241.38 540 540 0 298.62-241.38 540-540 540z"/>
		</clipPath>
	</defs>
	<style>
		.s0 { fill: #11111b } 
		.s1 { fill: #bac2de } 
	</style>
	<g clip-path="url(#cp1)">
		<path id="Shape 1" fill-rule="evenodd" class="s0" d="m540 1080c-298.6 0-540-241.4-540-540 0-298.6 241.4-540 540-540 298.6 0 540 241.4 540 540 0 298.6-241.4 540-540 540z"/>
		<path id="Shape 2" fill-rule="evenodd" class="s1" d="m0 1620c-298.6 0-540-241.4-540-540 0-298.6 241.4-540 540-540 298.6 0 540 241.4 540 540 0 298.6-241.4 540-540 540z"/>
		<path id="Shape 2 copy" fill-rule="evenodd" class="s1" d="m1080 540c-298.6 0-540-241.4-540-540 0-298.6 241.4-540 540-540 298.6 0 540 241.4 540 540 0 298.6-241.4 540-540 540z"/>
	</g>
</svg>